<?xml version="1.0" encoding="UTF-8" standalone="no"?>
<!DOCTYPE svg PUBLIC "-//W3C//DTD SVG 1.1//EN"
 "http://www.w3.org/Graphics/SVG/1.1/DTD/svg11.dtd">
<!-- Generated by graphviz version 5.0.1 (20220820.1526)
 -->
<!-- Pages: 1 -->
<svg width="410pt" height="511pt"
 viewBox="0.00 0.00 410.00 510.96" xmlns="http://www.w3.org/2000/svg" xmlns:xlink="http://www.w3.org/1999/xlink">
<g id="graph0" class="graph" transform="scale(1 1) rotate(0) translate(4 506.96)">
<polygon fill="white" stroke="none" points="-4,4 -4,-506.96 406,-506.96 406,4 -4,4"/>
<g id="clust1" class="cluster">
<title>cluster0</title>
<polygon fill="none" stroke="black" points="8,-8 8,-494.96 394,-494.96 394,-8 8,-8"/>
</g>
<!-- node_0_0 -->
<g id="node1" class="node">
<title>node_0_0</title>
<polygon fill="royalblue" stroke="royalblue" points="177,-486.96 113,-486.96 113,-448.96 177,-448.96 177,-486.96"/>
<text text-anchor="middle" x="145" y="-471.76" font-family="Times,serif" font-size="14.00">Input</text>
<text text-anchor="middle" x="145" y="-456.76" font-family="Times,serif" font-size="14.00">i64[3, 3]</text>
</g>
<!-- node_2_0 -->
<g id="node3" class="node">
<title>node_2_0</title>
<ellipse fill="none" stroke="black" cx="104" cy="-386.09" rx="63.78" ry="26.74"/>
<text text-anchor="middle" x="104" y="-389.89" font-family="Times,serif" font-size="14.00">PermuteAxes</text>
<text text-anchor="middle" x="104" y="-374.89" font-family="Times,serif" font-size="14.00">i64[3, 3]</text>
</g>
<!-- node_0_0&#45;&gt;node_2_0 -->
<g id="edge1" class="edge">
<title>node_0_0&#45;&gt;node_2_0</title>
<path fill="none" stroke="black" d="M135.7,-448.84C131.55,-440.76 126.52,-430.96 121.7,-421.58"/>
<polygon fill="black" stroke="black" points="124.68,-419.71 117,-412.41 118.45,-422.9 124.68,-419.71"/>
</g>
<!-- node_3_0 -->
<g id="node4" class="node">
<title>node_3_0</title>
<ellipse fill="none" stroke="black" cx="187" cy="-296.35" rx="45.01" ry="26.74"/>
<text text-anchor="middle" x="187" y="-300.15" font-family="Times,serif" font-size="14.00">Matmul</text>
<text text-anchor="middle" x="187" y="-285.15" font-family="Times,serif" font-size="14.00">i64[3, 3]</text>
</g>
<!-- node_0_0&#45;&gt;node_3_0 -->
<g id="edge3" class="edge">
<title>node_0_0&#45;&gt;node_3_0</title>
<path fill="none" stroke="black" d="M158.46,-448.96C165.23,-438.9 172.87,-425.83 177,-412.96 185.28,-387.18 187.62,-356.6 187.98,-333.37"/>
<polygon fill="black" stroke="black" points="191.48,-333.27 188.02,-323.25 184.48,-333.24 191.48,-333.27"/>
</g>
<!-- node_1_0 -->
<g id="node2" class="node">
<title>node_1_0</title>
<polygon fill="royalblue" stroke="royalblue" points="80,-135.87 16,-135.87 16,-97.87 80,-97.87 80,-135.87"/>
<text text-anchor="middle" x="48" y="-120.67" font-family="Times,serif" font-size="14.00">Input</text>
<text text-anchor="middle" x="48" y="-105.67" font-family="Times,serif" font-size="14.00">i64[3, 1]</text>
</g>
<!-- node_6_0 -->
<g id="node7" class="node">
<title>node_6_0</title>
<polygon fill="crimson" stroke="crimson" points="127,-54 63,-54 63,-16 127,-16 127,-54"/>
<text text-anchor="middle" x="95" y="-38.8" font-family="Times,serif" font-size="14.00">Matmul</text>
<text text-anchor="middle" x="95" y="-23.8" font-family="Times,serif" font-size="14.00">i64[3, 1]</text>
</g>
<!-- node_1_0&#45;&gt;node_6_0 -->
<g id="edge8" class="edge">
<title>node_1_0&#45;&gt;node_6_0</title>
<path fill="none" stroke="black" d="M58.67,-97.75C64.73,-87.43 72.45,-74.32 79.21,-62.83"/>
<polygon fill="black" stroke="black" points="82.32,-64.45 84.38,-54.05 76.29,-60.9 82.32,-64.45"/>
</g>
<!-- node_2_0&#45;&gt;node_3_0 -->
<g id="edge2" class="edge">
<title>node_2_0&#45;&gt;node_3_0</title>
<path fill="none" stroke="black" d="M127.12,-360.65C136.86,-350.35 148.3,-338.26 158.55,-327.42"/>
<polygon fill="black" stroke="black" points="161.1,-329.82 165.43,-320.15 156.01,-325.01 161.1,-329.82"/>
</g>
<!-- node_5_0 -->
<g id="node6" class="node">
<title>node_5_0</title>
<ellipse fill="none" stroke="black" cx="143" cy="-116.87" rx="45.01" ry="26.74"/>
<text text-anchor="middle" x="143" y="-120.67" font-family="Times,serif" font-size="14.00">Matmul</text>
<text text-anchor="middle" x="143" y="-105.67" font-family="Times,serif" font-size="14.00">i64[3, 3]</text>
</g>
<!-- node_2_0&#45;&gt;node_5_0 -->
<g id="edge6" class="edge">
<title>node_2_0&#45;&gt;node_5_0</title>
<path fill="none" stroke="black" d="M81.43,-360.73C47.42,-320.92 -9.34,-240.3 27,-179.74 29.18,-176.11 67.79,-155.91 99.87,-139.56"/>
<polygon fill="black" stroke="black" points="101.81,-142.5 109.14,-134.85 98.64,-136.26 101.81,-142.5"/>
</g>
<!-- node_4_0 -->
<g id="node5" class="node">
<title>node_4_0</title>
<ellipse fill="none" stroke="black" cx="211" cy="-206.61" rx="175.23" ry="26.74"/>
<text text-anchor="middle" x="211" y="-210.41" font-family="Times,serif" font-size="14.00">NewtonDivision(iterations=10, cap=2**4)</text>
<text text-anchor="middle" x="211" y="-195.41" font-family="Times,serif" font-size="14.00">i64[3, 3]</text>
</g>
<!-- node_3_0&#45;&gt;node_4_0 -->
<g id="edge4" class="edge">
<title>node_3_0&#45;&gt;node_4_0</title>
<path fill="none" stroke="black" d="M194.07,-269.5C196.32,-261.27 198.85,-252.02 201.26,-243.23"/>
<polygon fill="black" stroke="black" points="204.63,-244.15 203.9,-233.58 197.88,-242.3 204.63,-244.15"/>
</g>
<!-- node_4_0&#45;&gt;node_5_0 -->
<g id="edge5" class="edge">
<title>node_4_0&#45;&gt;node_5_0</title>
<path fill="none" stroke="black" d="M190.97,-179.76C183.68,-170.36 175.36,-159.63 167.72,-149.77"/>
<polygon fill="black" stroke="black" points="170.39,-147.5 161.5,-141.74 164.86,-151.78 170.39,-147.5"/>
</g>
<!-- node_5_0&#45;&gt;node_6_0 -->
<g id="edge7" class="edge">
<title>node_5_0&#45;&gt;node_6_0</title>
<path fill="none" stroke="black" d="M128.08,-91.04C122.71,-82.11 116.63,-72 111.17,-62.9"/>
<polygon fill="black" stroke="black" points="114.1,-60.99 105.95,-54.22 108.1,-64.59 114.1,-60.99"/>
</g>
</g>
</svg>
